<svg width="152" height="46" viewBox="0 0 152 46" fill="none" xmlns="http://www.w3.org/2000/svg">
<path d="M129.5 18.6L120.7 27.4" stroke="#4667FF" stroke-width="3" stroke-miterlimit="10" stroke-linecap="round"/>
<path d="M129.5 27.4L120.7 18.6" stroke="#4667FF" stroke-width="3" stroke-miterlimit="10" stroke-linecap="round"/>
<path d="M59.5999 28.4C62.8584 28.4 65.5 25.7585 65.5 22.5C65.5 19.2415 62.8584 16.6 59.5999 16.6C56.3415 16.6 53.7 19.2415 53.7 22.5C53.7 25.7585 56.3415 28.4 59.5999 28.4Z" stroke="#4667FF" stroke-width="3" stroke-miterlimit="10" stroke-linecap="round"/>
<path d="M112.2 23C112.2 12 103.3 3.19995 92.4004 3.19995C92.7004 3.19995 93.4004 3.19995 93.4004 3.19995H125.1C136 3.19995 144.9 12.1 145 23C145 34 136.1 42.8999 125.2 42.7999C125 42.7999 92.8004 42.7999 92.4004 42.7999C103.4 42.7999 112.2 33.9 112.2 23ZM112.2 23C112.2 15.9 118 10.1 125.1 10.1C132.2 10.1 138 15.9 138 23C138 30.1 132.2 35.9 125.1 35.9C118 35.9 112.2 30.1 112.2 23Z" stroke="#4667FF" stroke-width="3" stroke-miterlimit="10" stroke-linecap="round"/>
<path d="M112.1 23C112.1 12.1 103.3 3.19995 92.3004 3.19995C81.4004 3.19995 72.4004 12 72.4004 23C72.4004 33.9 81.2004 42.7999 92.2004 42.7999C103.3 42.8999 112.1 33.9 112.1 23ZM92.3004 35.5999C85.2004 35.5999 79.4004 29.8 79.4004 22.7C79.4004 15.6 85.2004 9.69995 92.3004 9.69995C99.4004 9.69995 105.2 15.5 105.2 22.6C105.3 29.8 99.5004 35.5999 92.3004 35.5999Z" stroke="#4667FF" stroke-width="3" stroke-miterlimit="10" stroke-linecap="round"/>
<path d="M112.1 23C112.1 12.1 103.3 3.19995 92.3 3.19995H26.8C15.9 3.19995 7 12.1 7 23C7 33.9 15.8 42.7999 26.8 42.7999H92.3C103.3 42.7999 112.1 33.9 112.1 23ZM26.8 35.5999C19.7 35.5999 13.9 29.8 13.9 22.7C13.9 15.6 19.7 9.69995 26.8 9.69995C33.9 9.69995 39.7 15.5 39.7 22.6C39.7 29.7 34 35.5999 26.8 35.5999ZM59.6 35.5999C52.5 35.5999 46.7 29.8 46.7 22.7C46.6 15.6 52.4 9.79995 59.6 9.79995C66.5 9.79995 72.1 15.2 72.5 22C72.5 22.4 72.4 22.7 72.4 23.1C72.4 23.4 72.4 23.6 72.4 23.9C71.9 30.4 66.4 35.5999 59.6 35.5999ZM92.3 35.5999C85.2 35.5999 79.4 29.8 79.4 22.7C79.4 15.6 85.2 9.69995 92.3 9.69995C99.4 9.69995 105.2 15.5 105.2 22.6C105.3 29.8 99.5 35.5999 92.3 35.5999Z" stroke="#4667FF" stroke-width="3" stroke-miterlimit="10" stroke-linecap="round"/>
<path d="M23.0996 16.7H27.2996C29.0996 16.7 30.4996 18.1 30.4996 19.9C30.4996 21.6999 29.0996 23.1 27.2996 23.1H24.5996" stroke="#4667FF" stroke-width="3" stroke-miterlimit="10" stroke-linecap="round"/>
<path d="M23.0996 16.7V28.2999" stroke="#4667FF" stroke-width="3" stroke-miterlimit="10" stroke-linecap="round"/>
<path d="M24.7 23L30.6 28.3" stroke="#4667FF" stroke-width="3" stroke-miterlimit="10" stroke-linecap="round"/>
<path d="M89.5996 16.7H93.2996C94.8996 16.7 96.0996 17.9 96.0996 19.5C96.0996 21.1 94.8996 22.2999 93.2996 22.2999H90.9996" stroke="#4667FF" stroke-width="3" stroke-miterlimit="10" stroke-linecap="round"/>
<path d="M89.5996 28.2998H94.2996C95.8996 28.2998 97.1996 26.9998 97.1996 25.3998C97.1996 23.7998 95.8996 22.4998 94.2996 22.4998H90.6996" stroke="#4667FF" stroke-width="3" stroke-miterlimit="10" stroke-linecap="round"/>
<path d="M89.5996 16.7V28.2999" stroke="#4667FF" stroke-width="3" stroke-miterlimit="10" stroke-linecap="round"/>
</svg>
